HIERARCHY
ROOT Hips
{
 OFFSET 0.000000 0.000000 0.000000
 CHANNELS 6 Xposition Yposition Zposition Yrotation Xrotation Zrotation
 JOINT Chest
 {
  OFFSET 0.000000 9.585900 0.002600
  CHANNELS 3 Yrotation Xrotation Zrotation
  JOINT Chest2
  {
   OFFSET 0.000000 9.601200 -0.005300
   CHANNELS 3 Yrotation Xrotation Zrotation
   JOINT Chest3
   {
    OFFSET 0.000000 9.561800 0.000000
    CHANNELS 3 Yrotation Xrotation Zrotation
    JOINT Chest4
    {
     OFFSET 0.000000 9.552100 0.000000
     CHANNELS 3 Yrotation Xrotation Zrotation
     JOINT Neck
     {
      OFFSET 0.000000 14.453000 0.000000
      CHANNELS 3 Yrotation Xrotation Zrotation
      JOINT Head
      {
       OFFSET 0.000000 8.936500 -0.011300
       CHANNELS 3 Yrotation Xrotation Zrotation
       End Site
       {
        OFFSET 0.000000 17.073600 -0.006000
       }
      }
     }
     JOINT RightCollar
     {
      OFFSET -2.921100 9.558500 0.000000
      CHANNELS 3 Yrotation Xrotation Zrotation
      JOINT RightShoulder
      {
       OFFSET -13.519700 0.000000 0.000000
       CHANNELS 3 Yrotation Xrotation Zrotation
       JOINT RightElbow
       {
        OFFSET 0.000000 -29.696600 0.000000
        CHANNELS 3 Yrotation Xrotation Zrotation
        JOINT RightWrist
        {
         OFFSET 0.000000 -24.004700 0.000000
         CHANNELS 3 Yrotation Xrotation Zrotation
         End Site
         {
          OFFSET 0.000000 -17.728500 0.000000
         }
        }
       }
      }
     }
     JOINT LeftCollar
     {
      OFFSET 2.921100 9.558500 0.000000
      CHANNELS 3 Yrotation Xrotation Zrotation
      JOINT LeftShoulder
      {
       OFFSET 13.519700 0.000000 0.000000
       CHANNELS 3 Yrotation Xrotation Zrotation
       JOINT LeftElbow
       {
        OFFSET 0.000000 -29.696600 0.000000
        CHANNELS 3 Yrotation Xrotation Zrotation
        JOINT LeftWrist
        {
         OFFSET 0.000000 -24.004700 0.000000
         CHANNELS 3 Yrotation Xrotation Zrotation
         End Site
         {
          OFFSET 0.000000 -17.728500 0.000000
         }
        }
       }
      }
     }
    }
   }
  }
 }
 JOINT RightHip
 {
  OFFSET -7.771700 -0.012900 -0.001300
  CHANNELS 3 Yrotation Xrotation Zrotation
  JOINT RightKnee
  {
   OFFSET 0.000000 -40.869800 0.001200
   CHANNELS 3 Yrotation Xrotation Zrotation
   JOINT RightAnkle
   {
    OFFSET 0.000000 -39.717900 0.002100
    CHANNELS 3 Yrotation Xrotation Zrotation
    JOINT RightToe
    {
     OFFSET 0.000000 -4.965400 11.033500
     CHANNELS 3 Yrotation Xrotation Zrotation
     End Site
     {
      OFFSET 0.000000 -1.423100 5.872300
     }
    }
   }
  }
 }
 JOINT LeftHip
 {
  OFFSET 7.771700 -0.012900 -0.001300
  CHANNELS 3 Yrotation Xrotation Zrotation
  JOINT LeftKnee
  {
   OFFSET 0.000000 -40.869800 0.001200
   CHANNELS 3 Yrotation Xrotation Zrotation
   JOINT LeftAnkle
   {
    OFFSET 0.000000 -39.717900 0.002100
    CHANNELS 3 Yrotation Xrotation Zrotation
    JOINT LeftToe
    {
     OFFSET 0.000000 -4.965400 11.033500
     CHANNELS 3 Yrotation Xrotation Zrotation
     End Site
     {
      OFFSET 0.000000 -1.423100 5.872300
     }
    }
   }
  }
 }
}
MOTION
Frames: 12
Frame Time: 0.008333
0.000000 85.388000 0.000000 0.000000 -5.767877 0.000000 0.000000 11.653817 0.000000 0.000000 -5.885947 0.000000 0.000000 -0.000000 0.000000 0.000000 -0.000000 0.000000 0.000000 12.528835 0.000000 0.000000 0.711642 0.000000 0.000000 -0.000000 0.000000 0.000000 0.000000 -90.000000 0.000000 -2.309062 0.000000 0.000000 2.309062 0.000000 0.000000 -0.000000 0.000000 0.000000 -0.000000 90.000000 0.000000 -2.309062 0.000000 0.000000 2.309062 0.000000 0.000000 8.520406 0.000000 0.000000 1.905762 0.000000 -0.000000 -4.658285 0.000000 0.000000 -0.000000 0.000000 0.000000 8.520406 0.000000 0.000000 1.905762 0.000000 -0.000000 -4.658285 0.000000 0.000000 -0.000000 0.000000
-30.556191 57.755505 12.255716 177.026698 -40.617421 -2.508211 3.792370 19.437969 3.233484 1.940100 11.116300 1.711065 2.507430 13.915759 2.218430 1.990806 11.164920 1.721097 4.826204 11.470008 9.365250 5.230570 -14.490553 15.871415 0.137338 1.094445 0.386878 -6.335895 -7.641262 -10.149411 -34.470046 -14.326734 101.883055 -13.646650 -8.302774 -2.155862 -7.128026 -1.941674 0.258095 2.180555 -7.755122 8.777884 32.817402 -14.515076 -94.446625 18.228120 -11.288793 -13.948451 3.817466 -31.174913 -4.141237 -37.902188 73.900389 -42.219704 6.381385 -14.063806 12.043827 -0.048444 -0.142158 0.005996 -5.015409 -28.305729 5.675300 91.329744 83.078958 92.161598 1.291609 -22.830583 -17.703599 0.081036 0.095757 0.026424
-30.560250 57.754680 12.257983 177.037971 -40.583736 -2.513920 3.805757 19.443694 3.246568 1.940421 11.106228 1.710789 2.516058 13.911618 2.220358 1.994148 11.163430 1.722148 4.799840 11.427894 9.369621 5.174371 -14.565855 15.893325 0.153967 1.047845 0.411957 -6.316690 -7.671750 -10.182869 -34.578900 -14.390817 101.935265 -13.664246 -8.317938 -2.236740 -7.169105 -1.979524 0.236260 2.121152 -7.867561 8.762751 32.897272 -14.553030 -94.412242 18.228471 -11.280607 -13.907436 3.850080 -31.196475 -4.118738 -37.955911 73.871340 -42.298398 6.355583 -14.062683 12.085819 -0.037049 -0.126262 0.003893 -5.029197 -28.339086 5.666900 91.302629 83.076210 92.137590 1.304945 -22.833552 -17.707668 0.080287 0.100833 0.026691
-30.564939 57.755384 12.259361 177.055361 -40.558986 -2.526001 3.810399 19.447775 3.259428 1.969215 11.134376 1.721761 2.500762 13.880464 2.215053 1.979682 11.148790 1.722597 4.789700 11.403276 9.374231 5.145054 -14.597920 15.901808 0.190030 1.024173 0.432444 -6.310361 -7.703342 -10.198644 -34.691871 -14.444338 101.976372 -13.677433 -8.323137 -2.305107 -7.197252 -2.001976 0.185453 2.066710 -7.981453 8.761800 32.989013 -14.603549 -94.377416 18.223445 -11.261908 -13.863651 3.855489 -31.212691 -4.110392 -37.975860 73.855587 -42.323640 6.340322 -14.054520 12.091467 -0.030051 -0.124083 0.012984 -5.046628 -28.362873 5.660634 91.210377 83.062856 92.053277 1.298379 -22.826703 -17.713445 0.088108 0.100066 0.030281
-30.572562 57.757443 12.259855 177.053386 -40.544271 -2.514174 3.825622 19.459152 3.261632 1.973224 11.134096 1.723312 2.532141 13.907246 2.226026 1.942300 11.108091 1.716674 4.778279 11.384567 9.376160 5.120538 -14.633091 15.910251 0.228988 1.006915 0.450345 -6.318952 -7.733682 -10.201149 -34.812787 -14.504262 102.025444 -13.681877 -8.321094 -2.373582 -7.219100 -2.017169 0.157366 2.014147 -8.100590 8.726254 33.087515 -14.664238 -94.339156 18.212884 -11.234867 -13.817646 3.872374 -31.220663 -4.116314 -37.953992 73.840756 -42.330951 6.345305 -14.041901 12.127595 -0.041957 -0.126651 0.002340 -5.041873 -28.377259 5.642712 91.179391 83.053699 92.021770 1.296549 -22.820635 -17.709130 0.088774 0.095278 0.027813
-30.581610 57.758255 12.262647 177.059192 -40.515688 -2.505585 3.833215 19.454934 3.260834 1.972619 11.128252 1.722492 2.536065 13.907056 2.227843 1.951589 11.115714 1.719801 4.751424 11.353640 9.376082 5.039116 -14.742674 15.945576 0.254327 0.979538 0.466381 -6.342070 -7.760427 -10.194762 -34.941517 -14.567584 102.083358 -13.675432 -8.311922 -2.440635 -7.261311 -2.045777 0.132720 1.971945 -8.220600 8.679575 33.188173 -14.739378 -94.297513 18.205413 -11.203970 -13.768882 3.884207 -31.242001 -4.126233 -37.933710 73.824923 -42.339618 6.352763 -14.032330 12.162021 -0.061578 -0.125948 -0.007318 -5.042717 -28.406526 5.626413 91.113889 83.048078 91.956294 1.287134 -22.815725 -17.703586 0.097219 0.094433 0.027548
-30.591469 57.758626 12.266758 177.072362 -40.481484 -2.502354 3.825640 19.433352 3.252832 1.969960 11.122508 1.720815 2.537426 13.906968 2.228554 1.977458 11.133886 1.725256 4.727029 11.321841 9.378409 4.976196 -14.804879 15.967114 0.276056 0.954894 0.485225 -6.377205 -7.780730 -10.183504 -35.080496 -14.640925 102.151854 -13.665582 -8.291233 -2.509282 -7.310788 -2.068946 0.102620 1.938070 -8.348334 8.631887 33.293691 -14.828893 -94.255065 18.204374 -11.168982 -13.714967 3.904302 -31.266994 -4.134542 -37.965336 73.794463 -42.387781 6.346582 -14.011058 12.188875 -0.063563 -0.128466 -0.004172 -5.046693 -28.442073 5.606361 91.070575 83.038683 91.911338 1.287818 -22.814958 -17.698423 0.096775 0.097502 0.029595
-30.598041 57.762434 12.267832 177.081989 -40.478263 -2.519148 3.829479 19.440847 3.270312 1.979606 11.134155 1.727334 2.540342 13.907456 2.231426 1.979608 11.134164 1.727341 4.704708 11.294185 9.379256 4.954478 -14.824833 15.968233 0.304340 0.933018 0.501497 -6.418867 -7.795126 -10.178264 -35.235327 -14.723958 102.238446 -13.658635 -8.267028 -2.580475 -7.347300 -2.083938 0.073447 1.909319 -8.487739 8.572564 33.402972 -14.928817 -94.215300 18.202140 -11.126192 -13.654387 3.925033 -31.252198 -4.101312 -38.053454 73.741153 -42.485846 6.327764 -13.997605 12.222155 -0.047631 -0.122671 0.001827 -5.060974 -28.442051 5.608554 91.027425 83.029076 91.867013 1.294517 -22.813420 -17.696310 0.092098 0.098116 0.028522
-30.604467 57.764816 12.270964 177.116234 -40.462269 -2.555434 3.837003 19.463219 3.303299 1.978179 11.128314 1.729364 2.551431 13.917025 2.239681 1.968447 11.115907 1.725956 4.682623 11.269436 9.379060 4.893202 -14.872683 15.980288 0.316612 0.911328 0.514320 -6.461286 -7.811277 -10.147448 -35.390801 -14.827615 102.314565 -13.655835 -8.254109 -2.653090 -7.379609 -2.104201 0.059235 1.886583 -8.624485 8.498268 33.510236 -15.039477 -94.180255 18.190935 -11.072384 -13.589802 3.904003 -31.257817 -4.074037 -38.066834 73.712066 -42.522012 6.305789 -13.999489 12.253191 -0.039824 -0.101478 0.003793 -5.096796 -28.454479 5.617275 90.988101 83.021735 91.826702 1.317631 -22.793145 -17.689402 0.067838 0.084767 0.016651
-30.613842 57.766574 12.274630 177.133781 -40.443979 -2.563899 3.834090 19.462021 3.308352 1.974826 11.122765 1.727566 2.566725 13.937204 2.249184 1.988684 11.142351 1.735898 4.634393 11.225272 9.373676 4.836962 -14.925089 15.983790 0.287659 0.854170 0.510254 -6.494216 -7.826114 -10.084927 -35.542753 -14.953611 102.376902 -13.655508 -8.254894 -2.725921 -7.427982 -2.155717 0.043510 1.871724 -8.763501 8.423430 33.617707 -15.164941 -94.150986 18.171991 -11.006960 -13.516886 3.903033 -31.264587 -4.069143 -38.075835 73.684756 -42.549990 6.295927 -13.987138 12.280509 -0.041483 -0.095732 0.000325 -5.114399 -28.474123 5.607660 90.981461 83.011389 91.816744 1.317950 -22.791275 -17.688821 0.068062 0.082119 0.019062
-30.623193 57.768526 12.277970 177.140300 -40.430909 -2.564452 3.837598 19.465350 3.313986 1.978388 11.125850 1.727909 2.565561 13.936193 2.250756 1.990885 11.144959 1.737581 4.616442 11.208002 9.369807 4.785037 -14.952628 15.991061 0.313871 0.848517 0.527859 -6.564570 -7.854668 -10.037911 -35.702362 -15.092697 102.445333 -13.652910 -8.260415 -2.792051 -7.471747 -2.124930 -0.010145 1.875312 -8.948978 8.382848 33.725298 -15.303060 -94.123808 18.149658 -10.939992 -13.434796 3.908928 -31.267793 -4.065257 -38.089482 73.653476 -42.583809 6.295598 -13.973645 12.309029 -0.041777 -0.091160 -0.003272 -5.120818 -28.488513 5.599481 90.916539 83.005596 91.748105 1.313715 -22.784603 -17.683160 0.069124 0.079541 0.020222
-30.630930 57.770883 12.280772 177.138748 -40.424785 -2.567580 3.849631 19.474581 3.329775 1.981467 11.130395 1.728139 2.567050 13.940161 2.254561 1.980188 11.127172 1.730851 4.609264 11.205459 9.369775 4.760157 -14.966063 15.993112 0.353019 0.890614 0.548282 -6.653833 -7.916105 -9.974989 -35.862361 -15.249730 102.507644 -13.645268 -8.263698 -2.849338 -7.488281 -2.104553 -0.037891 1.863059 -9.108426 8.312571 33.827125 -15.444665 -94.091540 18.131282 -10.882457 -13.360339 3.914766 -31.267455 -4.051837 -38.120573 73.619250 -42.630432 6.301061 -13.952381 12.328752 -0.035985 -0.092388 -0.002678 -5.124263 -28.494235 5.603336 90.903887 83.000385 91.730535 1.306929 -22.785003 -17.679596 0.070491 0.073578 0.024878
